# xmcd CD database file
#
# Track frame offsets:
#	150
#	30748
#	78302
#	105550
#	117402
#	150403
#	164997
#	180973
#	197024
#	222699
#
# Disc length: 3164 seconds
#
# Revision: 0
# Processed by: cddbd v1.4PL0 Copyright (c) Steve Scherf et al.
# Submitted via: CDex 1.50
#
DISCID=840c5a0a
DTITLE=Brothers Ssmahi and Charlie Mariano - Jazz meets North African Rhythms -Live
DYEAR=2003
DGENRE=Jazz
TTITLE0=Atlas
TTITLE1=Elhawa
TTITLE2=Habibi
TTITLE3=Kaman
TTITLE4=Anissa
TTITLE5=Mussafir
TTITLE6=Je Regrette
TTITLE7=Desert - Grooves
TTITLE8=Mostar
TTITLE9=Anghaam
EXTD=YEAR: 2003
EXTT0=
EXTT1=
EXTT2=
EXTT3=
EXTT4=
EXTT5=
EXTT6=
EXTT7=
EXTT8=
EXTT9=
PLAYORDER=
